<svg xmlns="http://www.w3.org/2000/svg" xmlns:xlink="http://www.w3.org/1999/xlink" width="500" zoomAndPan="magnify" viewBox="0 0 375 374.999991" height="500" preserveAspectRatio="xMidYMid meet" version="1.0"><defs><clipPath id="0ffedd6110"><path d="M 73.5 83 L 301.5 83 L 301.5 311.480469 L 73.5 311.480469 Z M 73.5 83 " clip-rule="nonzero"/></clipPath><clipPath id="7924bac8ea"><path d="M 123 11.609375 L 259 11.609375 L 259 131 L 123 131 Z M 123 11.609375 " clip-rule="nonzero"/></clipPath></defs><g clip-path="url(#0ffedd6110)"><path fill="#1d1d1b" d="M 84.757812 300.222656 L 290.242188 300.222656 L 290.242188 94.746094 L 84.757812 94.746094 Z M 295.871094 311.480469 L 79.128906 311.480469 C 76.019531 311.480469 73.5 308.960938 73.5 305.851562 L 73.5 89.113281 C 73.5 86.003906 76.019531 83.484375 79.128906 83.484375 L 295.871094 83.484375 C 298.984375 83.484375 301.503906 86.003906 301.503906 89.113281 L 301.503906 305.851562 C 301.503906 308.960938 298.984375 311.480469 295.871094 311.480469 " fill-opacity="1" fill-rule="nonzero"/></g><g clip-path="url(#7924bac8ea)"><path fill="#1d1d1b" d="M 252.820312 130.925781 C 249.707031 130.925781 247.195312 128.40625 247.195312 125.296875 L 247.195312 79.15625 C 247.195312 48.183594 222 22.988281 191.03125 22.988281 C 160.058594 22.988281 134.863281 48.183594 134.863281 79.15625 L 134.863281 125.296875 C 134.863281 128.40625 132.34375 130.925781 129.234375 130.925781 C 126.125 130.925781 123.605469 128.40625 123.605469 125.296875 L 123.605469 79.15625 C 123.605469 41.972656 153.851562 11.730469 191.03125 11.730469 C 228.207031 11.730469 258.449219 41.972656 258.449219 79.15625 L 258.449219 125.296875 C 258.449219 128.40625 255.933594 130.925781 252.820312 130.925781 " fill-opacity="1" fill-rule="nonzero"/></g></svg>